<svg height='100px' width='100px'  fill="#FFFFFF" xmlns="http://www.w3.org/2000/svg" xmlns:xlink="http://www.w3.org/1999/xlink" version="1.1" x="0px" y="0px" viewBox="0 0 100 100" enable-background="new 0 0 100 100" xml:space="preserve"><path d="M86.4,56.4v-4.7c0-19.8-16.1-35.9-35.9-35.9c-19.8,0-35.9,16.1-35.9,35.9v4.7c-2.6,0.7-4.6,3.1-4.6,6V75  c0,3.4,2.8,6.2,6.2,6.2h4.8c0.8,0,1.5-0.1,2.2-0.4c0.5,2.8,3,5,5.9,5h0.5c3.3,0,6.1-2.7,6.1-6.1V57.6c0-3.3-2.7-6.1-6.1-6.1h-0.5  C29.5,40,39,30.7,50.5,30.7s21,9.3,21.3,20.8h-0.5c-3.3,0-6.1,2.7-6.1,6.1v22.1c0,3.3,2.7,6.1,6.1,6.1h0.5c3,0,5.4-2.2,5.9-5  c0.7,0.3,1.4,0.4,2.2,0.4h4.8c3.4,0,6.2-2.8,6.2-6.2V62.3C91,59.5,89.1,57.1,86.4,56.4z M23.2,79.5c-0.7,0.3-1.4,0.5-2.1,0.5h-4.8  c-2.7,0-5-2.2-5-5V62.3c0-2.4,1.8-4.5,4.1-4.9c0,0,0,0,0,0c0,0,0,0,0,0c0.3,0,0.6-0.1,0.9-0.1h4.8c0.3,0,0.6,0,1,0.1  c0.1,0,0.1,0,0.2,0c0.3,0.1,0.6,0.2,0.9,0.3c0,0,0.1,0,0.1,0V79.5z M29.8,52.8c2.7,0,4.8,2.2,4.8,4.8v22.1c0,2.7-2.2,4.8-4.8,4.8  h-0.5c-2.6,0-4.7-2.1-4.8-4.7c0,0,0,0,0,0c0-0.1,0-0.1,0-0.1l0-22.1c0,0,0-0.1,0-0.1c0,0,0,0,0,0c0-0.8,0.3-1.6,0.7-2.3  c0-0.1,0.1-0.1,0.1-0.2c0.1-0.2,0.2-0.3,0.3-0.4c0.1-0.1,0.1-0.2,0.2-0.2c0.1-0.1,0.3-0.3,0.4-0.4c0.1-0.1,0.1-0.1,0.2-0.2  c0.2-0.1,0.4-0.3,0.6-0.4c0,0,0.1,0,0.1-0.1c0.5-0.2,1-0.4,1.6-0.5c0,0,0,0,0,0c0.2,0,0.4-0.1,0.6-0.1H29.8z M76.7,79.7  c0,0,0,0.1,0,0.2c0,0,0,0,0,0c-0.1,2.6-2.2,4.7-4.8,4.7h-0.5c-2.7,0-4.8-2.2-4.8-4.8V57.6c0-2.7,2.2-4.8,4.8-4.8h0.5  c0.2,0,0.4,0,0.6,0.1c0,0,0,0,0,0c0.6,0.1,1.1,0.2,1.6,0.5c0,0,0.1,0,0.1,0.1c0.2,0.1,0.4,0.2,0.6,0.4c0.1,0,0.1,0.1,0.2,0.2  c0.2,0.1,0.3,0.3,0.4,0.4c0.1,0.1,0.1,0.2,0.2,0.2c0.1,0.1,0.2,0.3,0.3,0.5c0,0.1,0.1,0.1,0.1,0.2c0.4,0.7,0.6,1.4,0.7,2.3  c0,0,0,0,0,0c0,0,0,0.1,0,0.1L76.7,79.7z M77.8,56.5C77.8,56.5,77.8,56.5,77.8,56.5c0-0.2-0.1-0.3-0.1-0.5c0-0.2-0.1-0.4-0.2-0.5  c-0.1-0.2-0.1-0.3-0.2-0.4c-0.1-0.2-0.2-0.4-0.3-0.6c-0.1-0.1-0.1-0.2-0.2-0.3c-0.2-0.3-0.4-0.5-0.6-0.8c-0.1-0.1-0.2-0.2-0.3-0.3  c-0.1-0.1-0.3-0.3-0.5-0.4c-0.2-0.1-0.3-0.2-0.5-0.3c-0.1-0.1-0.2-0.1-0.3-0.2c-0.5-0.2-1-0.5-1.5-0.6  c-0.2-12.3-10.2-22.2-22.5-22.2S28.2,39.4,28,51.7c-0.5,0.1-1,0.3-1.5,0.6c-0.1,0.1-0.2,0.1-0.3,0.2c-0.2,0.1-0.3,0.2-0.5,0.3  c-0.2,0.1-0.3,0.2-0.5,0.4c-0.1,0.1-0.2,0.2-0.3,0.3c-0.2,0.2-0.4,0.5-0.6,0.8c-0.1,0.1-0.1,0.2-0.2,0.3c-0.1,0.2-0.2,0.4-0.3,0.6  c-0.1,0.1-0.1,0.3-0.2,0.4c-0.1,0.2-0.1,0.4-0.2,0.5c0,0.2-0.1,0.3-0.1,0.5c0,0,0,0,0,0c0,0-0.1,0-0.1,0c-0.3-0.1-0.5-0.2-0.8-0.2  c-0.1,0-0.2,0-0.3-0.1c-0.3-0.1-0.7-0.1-1-0.1h-4.8c-0.1,0-0.3,0-0.4,0v-4.5C15.9,32.6,31.4,17,50.5,17c19.1,0,34.7,15.6,34.7,34.7  v4.5c-0.1,0-0.3,0-0.4,0H80c-0.3,0-0.7,0-1,0.1c-0.1,0-0.2,0-0.3,0.1C78.4,56.3,78.2,56.4,77.8,56.5C77.8,56.5,77.8,56.5,77.8,56.5z   M89.8,75c0,2.7-2.2,5-5,5H80c-0.7,0-1.4-0.2-2.1-0.5V57.8c0,0,0.1,0,0.1,0c0.3-0.1,0.6-0.2,0.9-0.3c0.1,0,0.1,0,0.2,0  c0.3-0.1,0.6-0.1,1-0.1h4.8c0.3,0,0.6,0,0.9,0.1c0,0,0,0,0,0c0,0,0,0,0,0c2.3,0.4,4.1,2.5,4.1,4.9V75z"></path></svg>